<svg id="Layer_2" data-name="Layer 2" xmlns="http://www.w3.org/2000/svg" viewBox="0 0 66.25 66.25"><defs><style>.cls-1{fill:#3c3c3c;}.cls-2{fill:none;stroke:#282828;stroke-miterlimit:10;stroke-width:0.25px;}</style></defs><title>dot1</title><path class="cls-1" d="M520.45,554.2v.08c0,1.91,0,3.82,0,5.74a1.33,1.33,0,0,0,.09.44l.3.85s0,0,0,.05h-.07l-.56-.34-.58-.35-.78-.47-.83-.5-.94-.57c-.19-.11-.37-.21-.55-.33a2.6,2.6,0,0,1-1.2-1.62,2.56,2.56,0,0,1-.07-.62v-5.44a.24.24,0,0,1,.17-.26.31.31,0,0,1,.19,0l1.43.86,2.56,1.55.49.29a.81.81,0,0,1,.36.54s0,0,0,.06" transform="translate(-506.88 -506.88)"/><path class="cls-1" d="M525.75,554.88a2.69,2.69,0,0,1-.51,1.33,2.82,2.82,0,0,1-.75.67l-1.15.69-1.08.65-1.21.73,0,0a.05.05,0,0,1-.07-.05c0-.44,0-.88,0-1.32a.74.74,0,0,1,.4-.63l1.09-.66.82-.49,1-.58.84-.51.59-.35s.06,0,.1,0,0,0,0,.08v.32s0,.08,0,.11" transform="translate(-506.88 -506.88)"/><path class="cls-1" d="M525.74,551.6a4.39,4.39,0,0,1-.13.52,2.58,2.58,0,0,1-.54.88,3.33,3.33,0,0,1-.85.64l-1.65,1-1.34.8-.2.12c-.06,0-.11,0-.11,0,0-.45,0-.9,0-1.35a.64.64,0,0,1,.16-.38,1.43,1.43,0,0,1,.42-.31l.9-.54.88-.53.89-.54.85-.51.59-.35,0,0c.07,0,.11,0,.11.06v.33s0,.07,0,.11v.06s0,0,0,.06" transform="translate(-506.88 -506.88)"/><path class="cls-1" d="M555.45,524.2v.08c0,1.91,0,3.82,0,5.74a1.33,1.33,0,0,0,.09.44l.3.85s0,0,0,.05h-.07l-.56-.34-.58-.35-.78-.47-.83-.5-.94-.57c-.19-.11-.37-.21-.55-.33a2.6,2.6,0,0,1-1.2-1.62,2.56,2.56,0,0,1-.07-.62v-5.44a.24.24,0,0,1,.17-.26.31.31,0,0,1,.19,0l1.43.86,2.56,1.55.49.29a.81.81,0,0,1,.36.54s0,0,0,.06" transform="translate(-506.88 -506.88)"/><path class="cls-1" d="M560.75,524.88a2.69,2.69,0,0,1-.51,1.33,2.82,2.82,0,0,1-.75.67l-1.15.69-1.08.65-1.21.73,0,0a.05.05,0,0,1-.07-.05c0-.44,0-.88,0-1.32a.74.74,0,0,1,.4-.63l1.09-.66.82-.49,1-.58.84-.51.59-.35s.06,0,.1,0,0,0,0,.08v.32s0,.08,0,.11" transform="translate(-506.88 -506.88)"/><path class="cls-1" d="M560.74,521.6a4.39,4.39,0,0,1-.13.52,2.58,2.58,0,0,1-.54.88,3.33,3.33,0,0,1-.85.64l-1.65,1-1.34.8-.2.12c-.06,0-.11,0-.11,0,0-.45,0-.9,0-1.35a.64.64,0,0,1,.16-.38,1.43,1.43,0,0,1,.42-.31l.9-.54.88-.53.89-.54.85-.51.59-.35,0,0c.07,0,.11,0,.11.06v.33s0,.07,0,.11v.06s0,0,0,.06" transform="translate(-506.88 -506.88)"/><rect class="cls-2" x="0.13" y="0.13" width="66" height="66"/></svg>